<?xml version="1.0" encoding="utf-8"?>
<!-- Generator: Adobe Illustrator 15.1.0, SVG Export Plug-In  -->
<!DOCTYPE svg PUBLIC "-//W3C//DTD SVG 1.1//EN" "http://www.w3.org/Graphics/SVG/1.1/DTD/svg11.dtd" [
	<!ENTITY ns_flows "http://ns.adobe.com/Flows/1.0/">
]>
<svg version="1.1"
	 xmlns="http://www.w3.org/2000/svg" xmlns:xlink="http://www.w3.org/1999/xlink" xmlns:a="http://ns.adobe.com/AdobeSVGViewerExtensions/3.0/"
	 x="0px" y="0px" width="34px" height="36px" viewBox="-0.046 -0.082 17 18" enable-background="new -0.046 -0.082 17 18"
	 xml:space="preserve">
<defs>
	<symbol  id="New_Symbol_160" viewBox="-8 -8 16 16">
		<g>
			<path d="M8-5H-3V8h7.163L8,3.876V-5z M-1-3h7v6.089L3.292,6H-1V-3z"/>
		</g>
		<g>
			<polygon points="3,-8 -8,-8 -8,5 -3,5 -3,3 -6,3 -6,-6 1,-6 1,-5 3,-5 			"/>
		</g>
		<polygon points="4,3 0,3 0,4 4,4 		"/>
		<polygon points="5,1 0,1 0,2 5,2 		"/>
		<polygon points="5,-1 0,-1 0,0 5,0 		"/>
		<polygon points="-3,0 -5,0 -5,1 -3,1 		"/>
		<polygon points="-2,-2 -5,-2 -5,-1 -2,-1 		"/>
		<polygon points="-2,-4 -5,-4 -5,-3 -2,-3 		"/>
	</symbol>
</defs>
<use xlink:href="#New_Symbol_160"  width="16" height="16" x="-8" y="-8" transform="matrix(1 0 0 -1 8 8)" overflow="visible"/>
</svg>
