<?xml version="1.0" encoding="utf-8"?>
<!-- Generator: Adobe Illustrator 15.1.0, SVG Export Plug-In  -->
<!DOCTYPE svg PUBLIC "-//W3C//DTD SVG 1.1//EN" "http://www.w3.org/Graphics/SVG/1.1/DTD/svg11.dtd" [
	<!ENTITY ns_flows "http://ns.adobe.com/Flows/1.0/">
]>
<svg version="1.1"
	 xmlns="http://www.w3.org/2000/svg" xmlns:xlink="http://www.w3.org/1999/xlink" xmlns:a="http://ns.adobe.com/AdobeSVGViewerExtensions/3.0/"
	 x="0px" y="0px" width="30px" height="36px" viewBox="-0.022 -0.268 15 18" enable-background="new -0.022 -0.268 15 18"
	 xml:space="preserve">
<defs>
	<symbol  id="New_Symbol_158" viewBox="-7.125 -7.813 14.251 15.628">
		<path d="M5.863-2.01C5.014-1.118,4.129-0.667,3.232-0.667c-0.915,0-1.613-0.471-2.078-0.922L0.983-1.362l0.404,0.545l1.903,1.192
			l2.771,4.439v3L0.048-0.121l-5.986,7.936v-3l2.729-4.439l1.862-1.192l0.43-0.579l-0.168-0.221c-0.464,0.459-1.171,0.95-2.106,0.95
			c-0.896,0-1.782-0.451-2.631-1.343c-1.482-1.556-1.49-3.316-1.046-4.352c0.384-0.896,1.3-1.452,2.14-1.452
			c0.405,0,1.714,0.915,1.78,0.99l0.689,1.041L0.04-2.659L2.421-5.88l0.704-1.011C3.17-6.941,4.398-7.813,4.812-7.813
			c0.84,0,1.657,0.557,2.041,1.452C7.296-5.326,7.345-3.565,5.863-2.01z M-4.204-5.896c-0.508-0.575-1.017-0.502-1.287,0.126
			c-0.264,0.615-0.225,1.699,0.753,2.726c0.555,0.583,1.075,0.878,1.545,0.878c0.499,0,0.908-0.339,1.16-0.618l-0.721-1.032
			l-0.279-0.368l-0.002-0.035L-4.204-5.896z M5.531-5.771C5.387-6.105,5.155-6.313,4.925-6.313c-0.202,0-0.444,0.148-0.628,0.35
			L3.119-4.28L3.113-4.186L2.275-3.074L2.073-2.785c0.253,0.28,0.662,0.618,1.16,0.618c0.47,0,0.99-0.295,1.545-0.878
			C5.756-4.071,5.794-5.155,5.531-5.771z"/>
	</symbol>
</defs>
<use xlink:href="#New_Symbol_158"  width="14.251" height="15.628" x="-7.125" y="-7.813" transform="matrix(1 0 0 -1 7.1255 7.8145)" overflow="visible"/>
</svg>
