<?xml version="1.0" encoding="utf-8"?>
<!-- Generator: Adobe Illustrator 15.1.0, SVG Export Plug-In  -->
<!DOCTYPE svg PUBLIC "-//W3C//DTD SVG 1.1//EN" "http://www.w3.org/Graphics/SVG/1.1/DTD/svg11.dtd" [
	<!ENTITY ns_flows "http://ns.adobe.com/Flows/1.0/">
]>
<svg version="1.1"
	 xmlns="http://www.w3.org/2000/svg" xmlns:xlink="http://www.w3.org/1999/xlink" xmlns:a="http://ns.adobe.com/AdobeSVGViewerExtensions/3.0/"
	 x="0px" y="0px" width="34px" height="36px" viewBox="-0.128 -0.082 17 18" enable-background="new -0.128 -0.082 17 18"
	 xml:space="preserve">
<defs>
	<symbol  id="New_Symbol_159" viewBox="-8 -8 16 16">
		<path d="M5.184,1H5v6H1.75L2,8h-7l0.25-1H-8V-6h5v-2H8v6.606L5.184,1z M1,7L0,5h-3l-1,2H1z M-3-4h-3v8h2h5h2V1h-6V-4z M7-7h-9v7
			h6.816L7-1.856V-7z"/>
		<polygon points="6,-4 -1,-4 -1,-3 6,-3 		"/>
		<polygon points="6,-6 -1,-6 -1,-5 6,-5 		"/>
		<polygon points="4,-2 -1,-2 -1,-1 4,-1 		"/>
	</symbol>
</defs>
<use xlink:href="#New_Symbol_159"  width="16" height="16" x="-8" y="-8" transform="matrix(1 0 0 -1 8 8)" overflow="visible"/>
</svg>
