<?xml version="1.0" encoding="utf-8"?>
<!-- Generator: Adobe Illustrator 15.1.0, SVG Export Plug-In  -->
<!DOCTYPE svg PUBLIC "-//W3C//DTD SVG 1.1//EN" "http://www.w3.org/Graphics/SVG/1.1/DTD/svg11.dtd" [
	<!ENTITY ns_flows "http://ns.adobe.com/Flows/1.0/">
]>
<svg version="1.1"
	 xmlns="http://www.w3.org/2000/svg" xmlns:xlink="http://www.w3.org/1999/xlink" xmlns:a="http://ns.adobe.com/AdobeSVGViewerExtensions/3.0/"
	 x="0px" y="0px" width="32px" height="36px" viewBox="-0.506 -3.388 16 18" enable-background="new -0.506 -3.388 16 18"
	 xml:space="preserve">
<defs>
	<symbol  id="New_Symbol_162" viewBox="-7.5 -5.694 15 11.389">
		<path d="M4.94,1.827C4.62,2.549,4.171,3.215,3.596,3.79C2.369,5.018,0.737,5.694-1,5.694S-4.369,5.018-5.596,3.79
			C-6.824,2.563-7.5,0.931-7.5-0.806s0.676-3.368,1.904-4.596C-5.4-5.597-5.145-5.694-4.889-5.694s0.512,0.098,0.708,0.293
			c0.39,0.391,0.39,1.023,0,1.414C-5.032-3.138-5.5-2.008-5.5-0.806s0.468,2.332,1.319,3.182C-3.332,3.227-2.202,3.694-1,3.694
			s2.332-0.468,3.182-1.318c0.63-0.63,1.048-1.415,1.223-2.269L1.25-2.306H7.5v7L4.94,1.827z"/>
	</symbol>
</defs>
<use xlink:href="#New_Symbol_162"  width="15" height="11.389" x="-7.5" y="-5.694" transform="matrix(1 0 0 -1 7.5 5.6943)" overflow="visible"/>
</svg>
