<?xml version="1.0" encoding="utf-8"?>
<!-- Generator: Adobe Illustrator 15.1.0, SVG Export Plug-In  -->
<!DOCTYPE svg PUBLIC "-//W3C//DTD SVG 1.1//EN" "http://www.w3.org/Graphics/SVG/1.1/DTD/svg11.dtd" [
	<!ENTITY ns_flows "http://ns.adobe.com/Flows/1.0/">
]>
<svg version="1.1"
	 xmlns="http://www.w3.org/2000/svg" xmlns:xlink="http://www.w3.org/1999/xlink" xmlns:a="http://ns.adobe.com/AdobeSVGViewerExtensions/3.0/"
	 x="0px" y="0px" width="32px" height="36px" viewBox="-0.564 -3.388 16 18" enable-background="new -0.564 -3.388 16 18"
	 xml:space="preserve">
<defs>
	<symbol  id="New_Symbol_161" viewBox="-7.5 -5.694 15 11.389">
		<path d="M1,5.694c-1.737,0-3.369-0.677-4.596-1.904C-4.171,3.215-4.62,2.549-4.94,1.827L-7.5,4.694v-7h6.25l-2.155,2.413
			c0.175,0.854,0.593,1.639,1.224,2.269C-1.332,3.227-0.202,3.694,1,3.694s2.332-0.468,3.182-1.318C5.032,1.526,5.5,0.396,5.5-0.806
			S5.032-3.138,4.182-3.987c-0.391-0.391-0.391-1.023,0-1.414c0.195-0.195,0.452-0.293,0.708-0.293S5.4-5.597,5.596-5.401
			C6.824-4.174,7.5-2.542,7.5-0.806S6.824,2.563,5.596,3.79C4.369,5.018,2.737,5.694,1,5.694z"/>
	</symbol>
</defs>
<use xlink:href="#New_Symbol_161"  width="15" height="11.389" x="-7.5" y="-5.694" transform="matrix(1 0 0 -1 7.5 5.6943)" overflow="visible"/>
</svg>
